<?xml version="1.0" encoding="utf-8"?>
<!-- Generator: Adobe Illustrator 26.0.2, SVG Export Plug-In . SVG Version: 6.00 Build 0)  -->
<svg version="1.1" id="Layer_1" xmlns="http://www.w3.org/2000/svg" xmlns:xlink="http://www.w3.org/1999/xlink" x="0px" y="0px"
	 viewBox="0 0 32 32" style="enable-background:new 0 0 32 32;" xml:space="preserve">
<style type="text/css">
	.st0{opacity:0;}
	.st1{fill:#FF00FF;fill-opacity:0;}
	.st2{opacity:0;fill:#FF00FF;fill-opacity:0;}
	.st3{fill:none;stroke:#FFFFFF;stroke-width:1.3;stroke-linecap:round;stroke-linejoin:round;stroke-miterlimit:10;}
</style>
<g id="Layer_1_00000141448386970195184780000012843838497169272765_">
	<rect id="Rectangle_7158_00000167380032581494161100000001445298442934364062_" class="st0" width="32" height="32"/>
	<g>
		<rect id="Rectangle_7158_00000132060176028405218470000012033742488934461102_" class="st1" width="32" height="32"/>
		<g>
			
				<rect id="Rectangle_7158_00000106133667198284549620000004313273345599571647_" x="2" y="2" class="st2" width="28" height="28"/>
			<g>
				<path class="st3" d="M27,25.4c0-0.3-0.2-0.5-0.5-0.5h-9.4c-2.7,0-5-1.9-5.6-4.5C11.4,20.2,11.3,20,11,20H5.5
					C5.2,20,5,20.2,5,20.5v7C5,27.8,5.2,28,5.5,28h21c0.3,0,0.5-0.2,0.5-0.5V25.4z"/>
				<g>
					<line class="st3" x1="25.2" y1="21.4" x2="22.8" y2="21.4"/>
				</g>
				<g>
					<line class="st3" x1="26.7" y1="17" x2="22.8" y2="19"/>
				</g>
				<g>
					<line class="st3" x1="9.3" y1="16.9" x2="11.7" y2="17.4"/>
				</g>
				<g>
					<line class="st3" x1="8.7" y1="12.2" x2="12.2" y2="14.8"/>
				</g>
				<g>
					<polygon class="st3" points="20,4 20,19.5 17.3,22.1 14.6,19.5 14.6,4 					"/>
					<line class="st3" x1="14.6" y1="16.2" x2="19.6" y2="19.3"/>
					<line class="st3" x1="14.7" y1="12.7" x2="20" y2="16"/>
					<line class="st3" x1="14.6" y1="9.2" x2="20" y2="12.6"/>
				</g>
				<line class="st3" x1="22.5" y1="16.5" x2="23.4" y2="15.7"/>
				<line class="st3" x1="3" y1="28" x2="29" y2="28"/>
			</g>
		</g>
	</g>
</g>
</svg>
